<?xml version="1.0" encoding="UTF-8"?><svg id="Layer_2" xmlns="http://www.w3.org/2000/svg" viewBox="0 0 1362.6 801"><defs><style>.cls-1{fill:none;stroke:#000057;stroke-miterlimit:10;}</style></defs><g id="Layer_1-2"><g><line class="cls-1" x1="1003.45" y1="59.32" x2="1362.1" y2="59.32"/><line class="cls-1" x1="1362.1" y1="34.34" x2="1003.45" y2="34.34"/><line class="cls-1" x1="1008.28" y1="19.83" x2="1362.1" y2="19.83"/><line class="cls-1" x1="1362.1" y1="5.33" x2="1019.16" y2="5.33"/><rect class="cls-1" x="502.47" y="365.64" width="172.58" height="416.12"/><rect class="cls-1" x="499.35" y="196.23" width="363.9" height="111.8"/><rect class="cls-1" x="504.18" y="201.06" width="354.23" height="102.13"/><rect class="cls-1" x="449.38" y="71.81" width="463.84" height="74.44"/><rect class="cls-1" x="454.21" y="76.65" width="454.17" height="64.78"/><rect class="cls-1" x="365.4" y="59.32" width="631.8" height="99.43"/><polyline class="cls-1" points="377.89 158.75 377.89 171.24 985.49 171.24 985.49 158.75"/><rect class="cls-1" x="359.15" y="34.34" width="644.29" height="24.98"/><rect class="cls-1" x="925.71" y="71.81" width="58.99" height="74.44"/><rect class="cls-1" x="382.73" y="76.65" width="49.33" height="64.78"/><rect class="cls-1" x="930.55" y="76.65" width="49.33" height="64.78"/><rect class="cls-1" x="377.89" y="71.81" width="58.99" height="74.44"/><rect class="cls-1" x="489.98" y="353.15" width="191.32" height="447.35"/><rect class="cls-1" x="687.55" y="365.64" width="172.58" height="416.12" transform="translate(1547.68 1147.41) rotate(-180)"/><rect class="cls-1" x="681.3" y="353.15" width="191.32" height="447.35" transform="translate(1553.92 1153.65) rotate(-180)"/><rect class="cls-1" x="471.24" y="334.41" width="420.12" height="466.09" transform="translate(1362.6 1134.91) rotate(-180)"/><rect class="cls-1" x="897.62" y="314.12" width="87.88" height="65.42"/><rect class="cls-1" x="910.11" y="326.61" width="62.89" height="40.44"/><rect class="cls-1" x="910.11" y="685.47" width="439.5" height="115.03"/><rect class="cls-1" x="897.62" y="177.49" width="87.88" height="130.39"/><rect class="cls-1" x="897.62" y="385.79" width="87.88" height="65.42"/><rect class="cls-1" x="897.62" y="457.46" width="87.88" height="65.42"/><rect class="cls-1" x="897.62" y="529.12" width="87.88" height="65.42"/><rect class="cls-1" x="897.62" y="601.05" width="87.88" height="65.42"/><rect class="cls-1" x="1085.86" y="165" width="181.84" height="142.88"/><rect class="cls-1" x="1085.86" y="314.12" width="181.84" height="352.35"/><rect class="cls-1" x="1092.11" y="320.37" width="169.34" height="339.86"/><polygon class="cls-1" points="1362.1 308.1 1274.22 308.1 1273.95 239.56 1361.83 239.56 1362.1 308.1"/><rect class="cls-1" x="1274.22" y="165" width="87.88" height="68.32"/><rect class="cls-1" x="897.62" y="672.72" width="464.48" height="127.78"/><line class="cls-1" x1="897.62" y1="314.12" x2="910.11" y2="326.61"/><line class="cls-1" x1="973" y1="326.61" x2="985.49" y2="314.12"/><rect class="cls-1" x="910.11" y="189.98" width="62.89" height="105.63"/><line class="cls-1" x1="897.62" y1="177.49" x2="910.11" y2="189.98"/><line class="cls-1" x1="973" y1="189.98" x2="985.49" y2="177.49"/><line class="cls-1" x1="973" y1="367.05" x2="985.49" y2="379.54"/><line class="cls-1" x1="910.11" y1="367.05" x2="897.62" y2="379.54"/><rect class="cls-1" x="910.11" y="398.28" width="62.89" height="40.44"/><line class="cls-1" x1="897.62" y1="385.79" x2="910.11" y2="398.28"/><line class="cls-1" x1="973" y1="398.28" x2="985.49" y2="385.79"/><line class="cls-1" x1="973" y1="438.72" x2="985.49" y2="451.21"/><line class="cls-1" x1="910.11" y1="438.72" x2="897.62" y2="451.21"/><rect class="cls-1" x="910.11" y="469.95" width="62.89" height="40.44"/><line class="cls-1" x1="897.62" y1="457.46" x2="910.11" y2="469.95"/><line class="cls-1" x1="973" y1="469.95" x2="985.49" y2="457.46"/><line class="cls-1" x1="973" y1="510.39" x2="985.49" y2="522.88"/><line class="cls-1" x1="910.11" y1="510.39" x2="897.62" y2="522.88"/><rect class="cls-1" x="910.11" y="541.62" width="62.89" height="40.44"/><line class="cls-1" x1="897.62" y1="529.12" x2="910.11" y2="541.62"/><line class="cls-1" x1="973" y1="541.62" x2="985.49" y2="529.12"/><line class="cls-1" x1="973" y1="582.05" x2="985.49" y2="594.55"/><line class="cls-1" x1="910.11" y1="582.05" x2="897.62" y2="594.55"/><rect class="cls-1" x="910.11" y="613.28" width="62.89" height="40.44"/><line class="cls-1" x1="897.62" y1="600.79" x2="910.11" y2="613.28"/><line class="cls-1" x1="973" y1="613.28" x2="985.49" y2="600.79"/><line class="cls-1" x1="973" y1="653.72" x2="985.49" y2="666.21"/><line class="cls-1" x1="910.11" y1="653.72" x2="897.62" y2="666.21"/><rect class="cls-1" x="991.6" y="314.12" width="87.88" height="65.42"/><rect class="cls-1" x="1004.1" y="326.61" width="62.89" height="40.44"/><rect class="cls-1" x="991.6" y="385.79" width="87.88" height="65.42"/><rect class="cls-1" x="991.6" y="457.46" width="87.88" height="65.42"/><rect class="cls-1" x="991.6" y="529.12" width="87.88" height="65.42"/><rect class="cls-1" x="991.6" y="601.05" width="87.88" height="65.42"/><line class="cls-1" x1="991.6" y1="314.12" x2="1004.1" y2="326.61"/><line class="cls-1" x1="1066.99" y1="326.61" x2="1079.48" y2="314.12"/><line class="cls-1" x1="1066.99" y1="367.05" x2="1079.48" y2="379.54"/><line class="cls-1" x1="1004.1" y1="367.05" x2="991.6" y2="379.54"/><rect class="cls-1" x="1004.1" y="398.28" width="62.89" height="40.44"/><line class="cls-1" x1="991.6" y1="385.79" x2="1004.1" y2="398.28"/><line class="cls-1" x1="1066.99" y1="398.28" x2="1079.48" y2="385.79"/><line class="cls-1" x1="1066.99" y1="438.72" x2="1079.48" y2="451.21"/><line class="cls-1" x1="1004.1" y1="438.72" x2="991.6" y2="451.21"/><rect class="cls-1" x="1004.1" y="469.95" width="62.89" height="40.44"/><line class="cls-1" x1="991.6" y1="457.46" x2="1004.1" y2="469.95"/><line class="cls-1" x1="1066.99" y1="469.95" x2="1079.48" y2="457.46"/><line class="cls-1" x1="1066.99" y1="510.39" x2="1079.48" y2="522.88"/><line class="cls-1" x1="1004.1" y1="510.39" x2="991.6" y2="522.88"/><rect class="cls-1" x="1004.1" y="541.62" width="62.89" height="40.44"/><line class="cls-1" x1="991.6" y1="529.12" x2="1004.1" y2="541.62"/><line class="cls-1" x1="1066.99" y1="541.62" x2="1079.48" y2="529.12"/><line class="cls-1" x1="1066.99" y1="582.05" x2="1079.48" y2="594.55"/><line class="cls-1" x1="1004.1" y1="582.05" x2="991.6" y2="594.55"/><rect class="cls-1" x="1004.1" y="613.28" width="62.89" height="40.44"/><line class="cls-1" x1="991.6" y1="600.79" x2="1004.1" y2="613.28"/><line class="cls-1" x1="1066.99" y1="613.28" x2="1079.48" y2="600.79"/><line class="cls-1" x1="1066.99" y1="653.72" x2="1079.48" y2="666.21"/><line class="cls-1" x1="1004.1" y1="653.72" x2="991.6" y2="666.21"/><rect class="cls-1" x="1274.22" y="314.12" width="87.88" height="65.42"/><rect class="cls-1" x="1286.71" y="326.61" width="62.89" height="40.44"/><rect class="cls-1" x="1274.22" y="385.79" width="87.88" height="65.42"/><rect class="cls-1" x="1274.22" y="457.46" width="87.88" height="65.42"/><rect class="cls-1" x="1274.22" y="529.12" width="87.88" height="65.42"/><rect class="cls-1" x="1274.22" y="601.05" width="87.88" height="65.42"/><line class="cls-1" x1="1274.22" y1="314.12" x2="1286.71" y2="326.61"/><line class="cls-1" x1="1349.61" y1="326.61" x2="1362.1" y2="314.12"/><line class="cls-1" x1="1349.61" y1="367.05" x2="1362.1" y2="379.54"/><line class="cls-1" x1="1286.71" y1="367.05" x2="1274.22" y2="379.54"/><rect class="cls-1" x="1286.71" y="252.05" width="62.89" height="43.56"/><line class="cls-1" x1="1274.22" y1="239.56" x2="1286.71" y2="252.05"/><line class="cls-1" x1="1349.61" y1="252.05" x2="1362.1" y2="239.56"/><line class="cls-1" x1="1349.61" y1="295.61" x2="1362.1" y2="308.1"/><line class="cls-1" x1="1286.71" y1="295.61" x2="1274.22" y2="308.1"/><rect class="cls-1" x="1286.71" y="177.49" width="62.89" height="43.56"/><line class="cls-1" x1="1274.22" y1="165" x2="1286.71" y2="177.49"/><line class="cls-1" x1="1349.61" y1="177.49" x2="1362.1" y2="165"/><line class="cls-1" x1="1349.61" y1="221.05" x2="1362.1" y2="233.54"/><line class="cls-1" x1="1286.71" y1="221.05" x2="1274.22" y2="233.54"/><polygon class="cls-1" points="1079.76 308.1 991.88 308.1 991.6 239.56 1079.48 239.56 1079.76 308.1"/><rect class="cls-1" x="991.88" y="165" width="87.88" height="68.32"/><rect class="cls-1" x="1004.37" y="252.05" width="62.89" height="43.56"/><line class="cls-1" x1="991.88" y1="239.56" x2="1004.37" y2="252.05"/><line class="cls-1" x1="1067.26" y1="252.05" x2="1079.76" y2="239.56"/><line class="cls-1" x1="1067.26" y1="295.61" x2="1079.76" y2="308.1"/><line class="cls-1" x1="1004.37" y1="295.61" x2="991.88" y2="308.1"/><line class="cls-1" x1="973" y1="295.61" x2="985.49" y2="308.1"/><line class="cls-1" x1="910.11" y1="295.61" x2="897.62" y2="308.1"/><rect class="cls-1" x="1004.37" y="177.49" width="62.89" height="43.56"/><line class="cls-1" x1="991.88" y1="165" x2="1004.37" y2="177.49"/><line class="cls-1" x1="1067.26" y1="177.49" x2="1079.76" y2="165"/><line class="cls-1" x1="1067.26" y1="221.05" x2="1079.76" y2="233.54"/><line class="cls-1" x1="1004.37" y1="221.05" x2="991.88" y2="233.54"/><rect class="cls-1" x="1286.71" y="398.28" width="62.89" height="40.44"/><line class="cls-1" x1="1274.22" y1="385.79" x2="1286.71" y2="398.28"/><line class="cls-1" x1="1349.61" y1="398.28" x2="1362.1" y2="385.79"/><line class="cls-1" x1="1349.61" y1="438.72" x2="1362.1" y2="451.21"/><line class="cls-1" x1="1286.71" y1="438.72" x2="1274.22" y2="451.21"/><rect class="cls-1" x="1286.71" y="469.95" width="62.89" height="40.44"/><line class="cls-1" x1="1274.22" y1="457.46" x2="1286.71" y2="469.95"/><line class="cls-1" x1="1349.61" y1="469.95" x2="1362.1" y2="457.46"/><line class="cls-1" x1="1349.61" y1="510.39" x2="1362.1" y2="522.88"/><line class="cls-1" x1="1286.71" y1="510.39" x2="1274.22" y2="522.88"/><rect class="cls-1" x="1286.71" y="541.62" width="62.89" height="40.44"/><line class="cls-1" x1="1274.22" y1="529.12" x2="1286.71" y2="541.62"/><line class="cls-1" x1="1349.61" y1="541.62" x2="1362.1" y2="529.12"/><line class="cls-1" x1="1349.61" y1="582.05" x2="1362.1" y2="594.55"/><line class="cls-1" x1="1286.71" y1="582.05" x2="1274.22" y2="594.55"/><rect class="cls-1" x="1286.71" y="613.28" width="62.89" height="40.44"/><line class="cls-1" x1="1274.22" y1="600.79" x2="1286.71" y2="613.28"/><line class="cls-1" x1="1349.61" y1="613.28" x2="1362.1" y2="600.79"/><line class="cls-1" x1="1349.61" y1="653.72" x2="1362.1" y2="666.21"/><line class="cls-1" x1="1286.71" y1="653.72" x2="1274.22" y2="666.21"/><line class="cls-1" x1="897.62" y1="672.72" x2="910.11" y2="685.47"/><line class="cls-1" x1="1349.61" y1="685.47" x2="1362.1" y2="672.72"/><polygon class="cls-1" points="1223.35 65.57 1306.05 65.57 1243.84 158.75 1202.11 158.75 1223.35 65.57"/><polygon class="cls-1" points="1217.26 146.67 1232.99 77.65 1283.45 77.65 1237.38 146.67 1217.26 146.67"/><polygon class="cls-1" points="1310.88 65.57 1362.1 65.57 1362.1 158.75 1248.67 158.75 1310.88 65.57"/><polygon class="cls-1" points="1271.27 146.67 1317.34 77.65 1350.02 77.65 1350.02 146.67 1271.27 146.67"/><polygon class="cls-1" points="1142.2 65.57 1218.52 65.57 1197.27 158.75 1163.44 158.75 1142.2 65.57"/><polygon class="cls-1" points="1173.08 146.67 1157.34 77.65 1203.37 77.65 1187.63 146.67 1173.08 146.67"/><polygon class="cls-1" points="1054.66 65.57 1137.36 65.57 1158.6 158.75 1116.87 158.75 1054.66 65.57"/><polygon class="cls-1" points="1123.33 146.67 1077.26 77.65 1127.72 77.65 1143.46 146.67 1123.33 146.67"/><polygon class="cls-1" points="1112.04 158.75 1049.83 65.57 1003.45 65.57 1003.45 158.75 1112.04 158.75"/><polygon class="cls-1" points="1015.53 146.67 1015.53 77.65 1043.37 77.65 1089.44 146.67 1015.53 146.67"/><line class="cls-1" x1="1350.02" y1="77.65" x2="1362.1" y2="65.57"/><line class="cls-1" x1="1317.34" y1="77.65" x2="1310.88" y2="65.57"/><line class="cls-1" x1="1271.27" y1="146.67" x2="1248.67" y2="158.75"/><line class="cls-1" x1="1362.1" y1="158.75" x2="1350.02" y2="146.67"/><line class="cls-1" x1="1243.84" y1="158.75" x2="1237.38" y2="146.67"/><line class="cls-1" x1="1217.26" y1="146.67" x2="1202.11" y2="158.75"/><line class="cls-1" x1="1232.99" y1="77.65" x2="1223.35" y2="65.57"/><line class="cls-1" x1="1283.45" y1="77.65" x2="1306.05" y2="65.57"/><line class="cls-1" x1="1203.37" y1="77.65" x2="1218.52" y2="65.57"/><line class="cls-1" x1="1157.34" y1="77.65" x2="1142.2" y2="65.57"/><line class="cls-1" x1="1163.44" y1="158.75" x2="1173.08" y2="146.67"/><line class="cls-1" x1="1187.63" y1="146.67" x2="1198.7" y2="158.75"/><line class="cls-1" x1="1158.6" y1="158.75" x2="1143.46" y2="146.67"/><line class="cls-1" x1="1123.33" y1="146.67" x2="1116.87" y2="158.75"/><line class="cls-1" x1="1077.26" y1="77.65" x2="1054.66" y2="65.57"/><line class="cls-1" x1="1127.72" y1="77.65" x2="1137.36" y2="65.57"/><line class="cls-1" x1="1043.37" y1="77.65" x2="1049.83" y2="65.57"/><line class="cls-1" x1="1015.53" y1="77.65" x2="1003.45" y2="65.57"/><line class="cls-1" x1="1015.53" y1="146.67" x2="1003.45" y2="158.75"/><line class="cls-1" x1="1089.44" y1="146.67" x2="1112.04" y2="158.75"/><rect class="cls-1" x="377.11" y="314.12" width="87.88" height="65.42" transform="translate(842.09 693.67) rotate(-180)"/><rect class="cls-1" x="389.6" y="326.61" width="62.89" height="40.44" transform="translate(842.09 693.67) rotate(-180)"/><rect class="cls-1" x="12.99" y="685.47" width="439.5" height="115.03" transform="translate(465.49 1485.97) rotate(-180)"/><rect class="cls-1" x="377.11" y="177.49" width="87.88" height="130.39" transform="translate(842.09 485.36) rotate(-180)"/><rect class="cls-1" x="377.11" y="385.79" width="87.88" height="65.42" transform="translate(842.09 837) rotate(-180)"/><rect class="cls-1" x="377.11" y="457.46" width="87.88" height="65.42" transform="translate(842.09 980.34) rotate(-180)"/><rect class="cls-1" x="377.11" y="529.12" width="87.88" height="65.42" transform="translate(842.09 1123.67) rotate(-180)"/><rect class="cls-1" x="377.11" y="601.05" width="87.88" height="65.42" transform="translate(842.09 1267.53) rotate(-180)"/><rect class="cls-1" x="94.9" y="165" width="181.84" height="142.88" transform="translate(371.64 472.87) rotate(-180)"/><rect class="cls-1" x="94.9" y="314.12" width="181.84" height="352.35" transform="translate(371.64 980.6) rotate(-180)"/><rect class="cls-1" x="101.15" y="320.37" width="169.34" height="339.86" transform="translate(371.64 980.6) rotate(-180)"/><polygon class="cls-1" points=".5 308.1 88.38 308.1 88.65 239.56 .78 239.56 .5 308.1"/><rect class="cls-1" x=".5" y="165" width="87.88" height="68.32" transform="translate(88.88 398.31) rotate(-180)"/><rect class="cls-1" x=".5" y="672.72" width="464.48" height="127.78" transform="translate(465.49 1473.22) rotate(-180)"/><rect class="cls-1" x=".5" y=".5" width="1361.6" height="800" transform="translate(1362.6 801) rotate(-180)"/><line class="cls-1" x1="464.98" y1="314.12" x2="452.49" y2="326.61"/><line class="cls-1" x1="389.6" y1="326.61" x2="377.11" y2="314.12"/><rect class="cls-1" x="389.6" y="189.98" width="62.89" height="105.63" transform="translate(842.09 485.59) rotate(-180)"/><line class="cls-1" x1="464.98" y1="177.49" x2="452.49" y2="189.98"/><line class="cls-1" x1="389.6" y1="189.98" x2="377.11" y2="177.49"/><line class="cls-1" x1="389.6" y1="367.05" x2="377.11" y2="379.54"/><line class="cls-1" x1="452.49" y1="367.05" x2="464.98" y2="379.54"/><rect class="cls-1" x="389.6" y="398.28" width="62.89" height="40.44" transform="translate(842.09 837) rotate(-180)"/><line class="cls-1" x1="464.98" y1="385.79" x2="452.49" y2="398.28"/><line class="cls-1" x1="389.6" y1="398.28" x2="377.11" y2="385.79"/><line class="cls-1" x1="389.6" y1="438.72" x2="377.11" y2="451.21"/><line class="cls-1" x1="452.49" y1="438.72" x2="464.98" y2="451.21"/><rect class="cls-1" x="389.6" y="469.95" width="62.89" height="40.44" transform="translate(842.09 980.34) rotate(-180)"/><line class="cls-1" x1="464.98" y1="457.46" x2="452.49" y2="469.95"/><line class="cls-1" x1="389.6" y1="469.95" x2="377.11" y2="457.46"/><line class="cls-1" x1="389.6" y1="510.39" x2="377.11" y2="522.88"/><line class="cls-1" x1="452.49" y1="510.39" x2="464.98" y2="522.88"/><rect class="cls-1" x="389.6" y="541.62" width="62.89" height="40.44" transform="translate(842.09 1123.67) rotate(-180)"/><line class="cls-1" x1="464.98" y1="529.12" x2="452.49" y2="541.62"/><line class="cls-1" x1="389.6" y1="541.62" x2="377.11" y2="529.12"/><line class="cls-1" x1="389.6" y1="582.05" x2="377.11" y2="594.55"/><line class="cls-1" x1="452.49" y1="582.05" x2="464.98" y2="594.55"/><rect class="cls-1" x="389.6" y="613.28" width="62.89" height="40.44" transform="translate(842.09 1267) rotate(-180)"/><line class="cls-1" x1="464.98" y1="600.79" x2="452.49" y2="613.28"/><line class="cls-1" x1="389.6" y1="613.28" x2="377.11" y2="600.79"/><line class="cls-1" x1="389.6" y1="653.72" x2="377.11" y2="666.21"/><line class="cls-1" x1="452.49" y1="653.72" x2="464.98" y2="666.21"/><rect class="cls-1" x="283.12" y="314.12" width="87.88" height="65.42" transform="translate(654.12 693.67) rotate(-180)"/><rect class="cls-1" x="295.61" y="326.61" width="62.89" height="40.44" transform="translate(654.12 693.67) rotate(-180)"/><rect class="cls-1" x="283.12" y="385.79" width="87.88" height="65.42" transform="translate(654.12 837) rotate(-180)"/><rect class="cls-1" x="283.12" y="457.46" width="87.88" height="65.42" transform="translate(654.12 980.34) rotate(-180)"/><rect class="cls-1" x="283.12" y="529.12" width="87.88" height="65.42" transform="translate(654.12 1123.67) rotate(-180)"/><rect class="cls-1" x="283.12" y="601.05" width="87.88" height="65.42" transform="translate(654.12 1267.53) rotate(-180)"/><line class="cls-1" x1="371" y1="314.12" x2="358.5" y2="326.61"/><line class="cls-1" x1="295.61" y1="326.61" x2="283.12" y2="314.12"/><line class="cls-1" x1="295.61" y1="367.05" x2="283.12" y2="379.54"/><line class="cls-1" x1="358.5" y1="367.05" x2="371" y2="379.54"/><rect class="cls-1" x="295.61" y="398.28" width="62.89" height="40.44" transform="translate(654.12 837) rotate(-180)"/><line class="cls-1" x1="371" y1="385.79" x2="358.5" y2="398.28"/><line class="cls-1" x1="295.61" y1="398.28" x2="283.12" y2="385.79"/><line class="cls-1" x1="295.61" y1="438.72" x2="283.12" y2="451.21"/><line class="cls-1" x1="358.5" y1="438.72" x2="371" y2="451.21"/><rect class="cls-1" x="295.61" y="469.95" width="62.89" height="40.44" transform="translate(654.12 980.34) rotate(-180)"/><line class="cls-1" x1="371" y1="457.46" x2="358.5" y2="469.95"/><line class="cls-1" x1="295.61" y1="469.95" x2="283.12" y2="457.46"/><line class="cls-1" x1="295.61" y1="510.39" x2="283.12" y2="522.88"/><line class="cls-1" x1="358.5" y1="510.39" x2="371" y2="522.88"/><rect class="cls-1" x="295.61" y="541.62" width="62.89" height="40.44" transform="translate(654.12 1123.67) rotate(-180)"/><line class="cls-1" x1="371" y1="529.12" x2="358.5" y2="541.62"/><line class="cls-1" x1="295.61" y1="541.62" x2="283.12" y2="529.12"/><line class="cls-1" x1="295.61" y1="582.05" x2="283.12" y2="594.55"/><line class="cls-1" x1="358.5" y1="582.05" x2="371" y2="594.55"/><rect class="cls-1" x="295.61" y="613.28" width="62.89" height="40.44" transform="translate(654.12 1267) rotate(-180)"/><line class="cls-1" x1="371" y1="600.79" x2="358.5" y2="613.28"/><line class="cls-1" x1="295.61" y1="613.28" x2="283.12" y2="600.79"/><line class="cls-1" x1="295.61" y1="653.72" x2="283.12" y2="666.21"/><line class="cls-1" x1="358.5" y1="653.72" x2="371" y2="666.21"/><rect class="cls-1" x=".5" y="314.12" width="87.88" height="65.42" transform="translate(88.88 693.67) rotate(-180)"/><rect class="cls-1" x="12.99" y="326.61" width="62.89" height="40.44" transform="translate(88.88 693.67) rotate(-180)"/><rect class="cls-1" x=".5" y="385.79" width="87.88" height="65.42" transform="translate(88.88 837) rotate(-180)"/><rect class="cls-1" x=".5" y="457.46" width="87.88" height="65.42" transform="translate(88.88 980.34) rotate(-180)"/><rect class="cls-1" x=".5" y="529.12" width="87.88" height="65.42" transform="translate(88.88 1123.67) rotate(-180)"/><rect class="cls-1" x=".5" y="601.05" width="87.88" height="65.42" transform="translate(88.88 1267.53) rotate(-180)"/><line class="cls-1" x1="88.38" y1="314.12" x2="75.89" y2="326.61"/><line class="cls-1" x1="12.99" y1="326.61" x2=".5" y2="314.12"/><line class="cls-1" x1="12.99" y1="367.05" x2=".5" y2="379.54"/><line class="cls-1" x1="75.89" y1="367.05" x2="88.38" y2="379.54"/><rect class="cls-1" x="12.99" y="252.05" width="62.89" height="43.56" transform="translate(88.88 547.66) rotate(-180)"/><line class="cls-1" x1="88.38" y1="239.56" x2="75.89" y2="252.05"/><line class="cls-1" x1="12.99" y1="252.05" x2=".5" y2="239.56"/><line class="cls-1" x1="12.99" y1="295.61" x2=".5" y2="308.1"/><line class="cls-1" x1="75.89" y1="295.61" x2="88.38" y2="308.1"/><rect class="cls-1" x="12.99" y="177.49" width="62.89" height="43.56" transform="translate(88.88 398.54) rotate(-180)"/><line class="cls-1" x1="88.38" y1="165" x2="75.89" y2="177.49"/><line class="cls-1" x1="12.99" y1="177.49" x2=".5" y2="165"/><line class="cls-1" x1="12.99" y1="221.05" x2=".5" y2="233.54"/><line class="cls-1" x1="75.89" y1="221.05" x2="88.38" y2="233.54"/><polygon class="cls-1" points="282.85 308.1 370.72 308.1 371 239.56 283.12 239.56 282.85 308.1"/><rect class="cls-1" x="282.85" y="165" width="87.88" height="68.32" transform="translate(653.57 398.31) rotate(-180)"/><rect class="cls-1" x="295.34" y="252.05" width="62.89" height="43.56" transform="translate(653.57 547.66) rotate(-180)"/><line class="cls-1" x1="370.72" y1="239.56" x2="358.23" y2="252.05"/><line class="cls-1" x1="295.34" y1="252.05" x2="282.85" y2="239.56"/><line class="cls-1" x1="295.34" y1="295.61" x2="282.85" y2="308.1"/><line class="cls-1" x1="358.23" y1="295.61" x2="370.72" y2="308.1"/><line class="cls-1" x1="389.6" y1="295.61" x2="377.11" y2="308.1"/><line class="cls-1" x1="452.49" y1="295.61" x2="464.98" y2="308.1"/><rect class="cls-1" x="295.34" y="177.49" width="62.89" height="43.56" transform="translate(653.57 398.54) rotate(-180)"/><line class="cls-1" x1="370.72" y1="165" x2="358.23" y2="177.49"/><line class="cls-1" x1="295.34" y1="177.49" x2="282.85" y2="165"/><line class="cls-1" x1="295.34" y1="221.05" x2="282.85" y2="233.54"/><line class="cls-1" x1="358.23" y1="221.05" x2="370.72" y2="233.54"/><rect class="cls-1" x="12.99" y="398.28" width="62.89" height="40.44" transform="translate(88.88 837) rotate(-180)"/><line class="cls-1" x1="88.38" y1="385.79" x2="75.89" y2="398.28"/><line class="cls-1" x1="12.99" y1="398.28" x2=".5" y2="385.79"/><line class="cls-1" x1="12.99" y1="438.72" x2=".5" y2="451.21"/><line class="cls-1" x1="75.89" y1="438.72" x2="88.38" y2="451.21"/><rect class="cls-1" x="12.99" y="469.95" width="62.89" height="40.44" transform="translate(88.88 980.34) rotate(-180)"/><line class="cls-1" x1="88.38" y1="457.46" x2="75.89" y2="469.95"/><line class="cls-1" x1="12.99" y1="469.95" x2=".5" y2="457.46"/><line class="cls-1" x1="12.99" y1="510.39" x2=".5" y2="522.88"/><line class="cls-1" x1="75.89" y1="510.39" x2="88.38" y2="522.88"/><rect class="cls-1" x="12.99" y="541.62" width="62.89" height="40.44" transform="translate(88.88 1123.67) rotate(-180)"/><line class="cls-1" x1="88.38" y1="529.12" x2="75.89" y2="541.62"/><line class="cls-1" x1="12.99" y1="541.62" x2=".5" y2="529.12"/><line class="cls-1" x1="12.99" y1="582.05" x2=".5" y2="594.55"/><line class="cls-1" x1="75.89" y1="582.05" x2="88.38" y2="594.55"/><rect class="cls-1" x="12.99" y="613.28" width="62.89" height="40.44" transform="translate(88.88 1267) rotate(-180)"/><line class="cls-1" x1="88.38" y1="600.79" x2="75.89" y2="613.28"/><line class="cls-1" x1="12.99" y1="613.28" x2=".5" y2="600.79"/><line class="cls-1" x1="12.99" y1="653.72" x2=".5" y2="666.21"/><line class="cls-1" x1="75.89" y1="653.72" x2="88.38" y2="666.21"/><line class="cls-1" x1="464.98" y1="672.72" x2="452.49" y2="685.47"/><line class="cls-1" x1="12.99" y1="685.47" x2=".5" y2="672.72"/><polygon class="cls-1" points="139.25 65.57 56.55 65.57 118.76 158.75 160.49 158.75 139.25 65.57"/><polygon class="cls-1" points="145.35 146.67 129.61 77.65 79.15 77.65 125.22 146.67 145.35 146.67"/><polygon class="cls-1" points="51.72 65.57 .5 65.57 .5 158.75 113.93 158.75 51.72 65.57"/><polygon class="cls-1" points="91.33 146.67 45.26 77.65 12.59 77.65 12.59 146.67 91.33 146.67"/><polygon class="cls-1" points="220.41 65.57 144.08 65.57 165.33 158.75 199.16 158.75 220.41 65.57"/><polygon class="cls-1" points="189.52 146.67 205.26 77.65 159.23 77.65 174.97 146.67 189.52 146.67"/><polygon class="cls-1" points="307.94 65.57 225.24 65.57 204 158.75 245.73 158.75 307.94 65.57"/><polygon class="cls-1" points="239.27 146.67 285.34 77.65 234.88 77.65 219.15 146.67 239.27 146.67"/><polygon class="cls-1" points="250.56 158.75 312.77 65.57 359.15 65.57 359.15 158.75 250.56 158.75"/><polygon class="cls-1" points="347.07 146.67 347.07 77.65 319.23 77.65 273.16 146.67 347.07 146.67"/><line class="cls-1" x1="12.59" y1="77.65" x2=".5" y2="65.57"/><line class="cls-1" x1="45.26" y1="77.65" x2="51.72" y2="65.57"/><line class="cls-1" x1="91.33" y1="146.67" x2="113.93" y2="158.75"/><line class="cls-1" x1=".5" y1="158.75" x2="12.59" y2="146.67"/><line class="cls-1" x1="118.76" y1="158.75" x2="125.22" y2="146.67"/><line class="cls-1" x1="145.35" y1="146.67" x2="160.49" y2="158.75"/><line class="cls-1" x1="129.61" y1="77.65" x2="139.25" y2="65.57"/><line class="cls-1" x1="79.15" y1="77.65" x2="56.55" y2="65.57"/><line class="cls-1" x1="159.23" y1="77.65" x2="144.08" y2="65.57"/><line class="cls-1" x1="205.26" y1="77.65" x2="220.41" y2="65.57"/><line class="cls-1" x1="199.16" y1="158.75" x2="189.52" y2="146.67"/><line class="cls-1" x1="174.97" y1="146.67" x2="163.9" y2="158.75"/><line class="cls-1" x1="204" y1="158.75" x2="219.15" y2="146.67"/><line class="cls-1" x1="239.27" y1="146.67" x2="245.73" y2="158.75"/><line class="cls-1" x1="285.34" y1="77.65" x2="307.94" y2="65.57"/><line class="cls-1" x1="234.88" y1="77.65" x2="225.24" y2="65.57"/><line class="cls-1" x1="319.23" y1="77.65" x2="312.77" y2="65.57"/><line class="cls-1" x1="347.07" y1="77.65" x2="359.15" y2="65.57"/><line class="cls-1" x1="347.07" y1="146.67" x2="359.15" y2="158.75"/><line class="cls-1" x1="273.16" y1="146.67" x2="250.56" y2="158.75"/><line class="cls-1" x1="354.32" y1="19.83" x2="1008.28" y2="19.83"/><line class="cls-1" x1="1019.16" y1="5.33" x2="343.45" y2="5.33"/><line class="cls-1" x1="359.15" y1="34.34" x2="354.32" y2="19.83"/><line class="cls-1" x1="354.32" y1="19.83" x2="339.82" y2=".5"/><line class="cls-1" x1="1003.45" y1="34.34" x2="1008.28" y2="19.83"/><line class="cls-1" x1="1008.28" y1="19.83" x2="1022.78" y2=".5"/><line class="cls-1" x1="1362.1" y1=".5" x2="1362.1" y2="59.32"/><line class="cls-1" x1="359.15" y1="59.32" x2=".5" y2="59.32"/><line class="cls-1" x1=".5" y1="34.34" x2="359.15" y2="34.34"/><line class="cls-1" x1="354.32" y1="19.83" x2=".5" y2="19.83"/><line class="cls-1" x1=".5" y1="5.33" x2="343.45" y2="5.33"/><line class="cls-1" x1=".5" y1=".5" x2=".5" y2="59.32"/></g></g></svg>